<?xml version="1.0" standalone="no"?>
<!DOCTYPE svg PUBLIC "-//W3C//DTD SVG 20010904//EN"
 "http://www.w3.org/TR/2001/REC-SVG-20010904/DTD/svg10.dtd">
<svg version="1.0" xmlns="http://www.w3.org/2000/svg"
 width="341.000000pt" height="259.000000pt" viewBox="0 0 341.000000 259.000000"
 preserveAspectRatio="xMidYMid meet">

<g transform="translate(0.000000,259.000000) scale(0.100000,-0.100000)"
fill="#000000" stroke="none">
<path d="M1635 2261 c-3 -5 -1 -12 5 -16 5 -3 10 1 10 9 0 18 -6 21 -15 7z"/>
<path d="M2700 2157 c0 -51 -4 -61 -36 -97 -36 -40 -82 -60 -137 -60 -26 0
-27 -2 -25 -44 2 -24 5 -42 7 -40 2 2 10 -1 17 -6 9 -8 15 -3 25 20 13 28 17
31 46 25 46 -8 110 13 138 47 46 55 42 139 -10 188 l-25 23 0 -56z"/>
<path d="M1078 2143 c7 -3 16 -2 19 1 4 3 -2 6 -13 5 -11 0 -14 -3 -6 -6z"/>
<path d="M2328 2126 c81 -91 92 -100 92 -78 0 13 6 22 15 22 19 0 19 5 0 34
-19 28 -59 46 -97 43 -25 -2 -26 -3 -10 -21z"/>
<path d="M1123 2124 c-24 -11 27 -44 74 -50 28 -3 40 14 22 31 -16 15 -77 27
-96 19z"/>
<path d="M976 2084 c-8 -21 -8 -24 4 -24 5 0 14 9 20 20 8 16 8 20 -4 20 -7 0
-17 -7 -20 -16z"/>
<path d="M1600 2082 c0 -12 -49 -35 -85 -40 -16 -2 -41 -10 -55 -17 -25 -14
-25 -14 16 -15 29 0 54 9 87 31 40 26 59 49 42 49 -3 0 -5 -4 -5 -8z"/>
<path d="M1800 2075 c0 -3 21 -19 47 -35 32 -21 60 -30 87 -30 l41 0 -27 14
c-15 8 -40 16 -55 17 -15 2 -40 11 -55 21 -27 18 -38 22 -38 13z"/>
<path d="M1231 2018 c2 -2 25 -22 49 -45 32 -30 49 -40 59 -33 11 6 6 12 -20
23 -19 8 -43 24 -53 36 -11 11 -24 21 -29 21 -6 0 -8 -1 -6 -2z"/>
<path d="M1609 1983 c-8 -9 -28 -22 -46 -30 -38 -15 -66 -18 -43 -3 22 14 8
20 -32 14 -29 -5 -47 -20 -99 -82 -63 -76 -63 -76 -65 -145 -2 -55 -8 -77 -28
-108 l-26 -39 25 -65 c26 -71 55 -128 68 -133 4 -2 7 -10 7 -17 0 -25 156
-173 246 -231 l91 -60 60 41 c92 61 112 78 107 87 -3 5 -11 5 -17 1 -7 -3 17
23 53 59 37 36 88 97 114 136 28 41 54 68 61 66 8 -4 20 16 33 55 l21 61 -25
45 c-20 35 -26 59 -25 107 0 66 7 54 -111 192 -4 6 -26 9 -49 7 -50 -2 -101
13 -124 39 -15 17 -31 20 -100 20 -65 0 -86 -4 -96 -17z m95 -22 c-34 -3 -67
-10 -75 -16 -8 -5 -6 -2 4 8 14 12 34 17 76 15 l56 -1 -61 -6z m156 -268 c0
-25 -1 -25 -18 -10 -10 10 -35 17 -56 17 l-37 0 3 -135 3 -135 -50 0 -50 0 3
135 3 135 -40 0 c-22 0 -43 -4 -46 -10 -11 -18 -22 -10 -18 13 4 22 6 22 154
19 l149 -3 0 -26z m100 -317 c0 -2 -8 -10 -17 -17 -16 -13 -17 -12 -4 4 13 16
21 21 21 13z m-40 -49 c0 -2 -19 -18 -42 -36 l-43 -32 39 35 c37 34 46 40 46
33z"/>
<path d="M2420 1989 c0 -5 5 -7 10 -4 6 3 10 8 10 11 0 2 -4 4 -10 4 -5 0 -10
-5 -10 -11z"/>
<path d="M2205 1940 c-3 -5 -1 -10 4 -10 6 0 11 5 11 10 0 6 -2 10 -4 10 -3 0
-8 -4 -11 -10z"/>
<path d="M2765 1919 c-45 -21 -91 -24 -131 -9 -35 14 -39 9 -14 -23 25 -32 87
-44 126 -25 27 13 72 64 63 71 -2 2 -22 -4 -44 -14z"/>
<path d="M2580 1861 c0 -6 4 -13 10 -16 6 -3 7 1 4 9 -7 18 -14 21 -14 7z"/>
<path d="M2610 1823 c0 -11 35 -41 52 -44 7 -1 24 0 38 1 20 2 17 4 -16 13
-23 7 -49 18 -58 26 -9 7 -16 9 -16 4z"/>
<path d="M1016 1701 c-4 -7 -5 -15 -2 -18 9 -9 19 4 14 18 -4 11 -6 11 -12 0z"/>
<path d="M2380 1691 c0 -6 5 -13 10 -16 6 -3 10 1 10 9 0 9 -4 16 -10 16 -5 0
-10 -4 -10 -9z"/>
<path d="M1230 1485 c0 -18 54 -114 61 -109 14 8 10 48 -7 72 -15 22 -54 48
-54 37z"/>
<path d="M2147 1468 c-29 -27 -43 -73 -25 -84 6 -4 14 -2 16 4 2 7 8 9 14 6 7
-5 9 2 6 20 -3 14 -1 26 5 26 6 0 7 3 4 7 -4 3 -2 12 5 20 20 24 1 25 -25 1z"/>
<path d="M2644 1296 l-22 -65 25 12 c35 16 55 59 43 91 -5 14 -13 26 -17 26
-5 0 -18 -29 -29 -64z"/>
<path d="M727 1343 c-21 -20 4 -86 39 -101 19 -9 22 -9 17 4 -3 9 -7 23 -8 32
-2 27 -24 72 -33 72 -5 0 -12 -3 -15 -7z"/>
<path d="M36 472 c-3 -3 -6 -12 -6 -20 0 -10 9 -13 31 -10 l31 5 -8 -66 c-14
-112 -11 -155 9 -159 14 -3 17 4 18 35 0 21 6 70 12 108 12 69 13 70 47 75 20
3 36 11 38 20 2 12 -13 15 -82 16 -47 1 -87 -1 -90 -4z"/>
<path d="M259 473 c-1 -5 -1 -11 0 -15 0 -4 -6 -53 -15 -109 -8 -56 -12 -109
-9 -116 8 -24 39 -11 40 17 4 86 -1 80 63 80 l57 0 0 -52 c0 -39 4 -53 15 -56
13 -2 18 17 28 100 7 57 16 116 19 131 5 26 3 28 -18 25 -21 -3 -25 -10 -30
-54 -4 -29 -10 -57 -13 -63 -4 -6 -30 -11 -57 -11 l-51 0 7 65 c7 62 6 65 -14
65 -11 0 -22 -3 -22 -7z"/>
<path d="M545 466 c-8 -30 -27 -215 -23 -227 5 -16 103 -23 130 -8 35 19 19
29 -37 23 -54 -7 -55 -6 -55 19 0 43 10 57 41 57 20 0 29 5 29 16 0 10 -6 13
-17 10 -29 -9 -40 6 -35 46 4 37 4 37 55 40 36 2 53 7 55 18 2 12 -11 15 -69
16 -42 0 -72 -4 -74 -10z"/>
<path d="M860 478 c-6 -33 -14 -148 -14 -193 -1 -47 2 -60 14 -60 11 0 17 17
21 71 4 39 10 86 14 105 8 32 9 29 26 -49 21 -97 24 -102 52 -102 18 0 25 11
40 59 10 32 32 74 48 92 l29 34 -8 -45 c-4 -25 -7 -72 -7 -105 0 -47 3 -60 15
-60 11 0 17 16 21 60 4 33 10 90 14 128 7 63 7 67 -13 67 -29 0 -97 -81 -118
-140 -10 -28 -21 -47 -25 -43 -3 5 -12 37 -18 72 -18 91 -29 111 -63 111 -15
0 -28 -1 -28 -2z"/>
<path d="M1206 463 c4 -10 10 -56 14 -103 8 -95 19 -125 51 -135 21 -7 20 -8
-10 -27 -24 -16 -43 -19 -77 -15 -38 4 -44 2 -42 -12 3 -13 16 -16 60 -16 48
0 62 5 94 31 49 39 100 132 113 206 12 68 7 88 -21 88 -16 0 -19 -5 -14 -24
15 -60 -40 -220 -74 -214 -22 5 -39 64 -39 144 -1 73 -11 94 -44 94 -15 0 -17
-4 -11 -17z"/>
<path d="M1512 460 c-29 -18 -33 -25 -30 -58 3 -35 7 -39 66 -66 62 -30 75
-49 50 -74 -20 -20 -85 -15 -108 8 -18 18 -21 19 -27 4 -16 -43 85 -69 147
-37 31 16 35 22 35 58 0 39 -1 41 -62 69 -74 35 -82 57 -28 83 34 16 36 16 51
-5 17 -25 52 -29 60 -7 18 46 -91 63 -154 25z"/>
<path d="M1716 473 c-3 -4 -6 -13 -6 -21 0 -10 8 -13 30 -10 17 3 33 2 35 -2
2 -3 -3 -47 -10 -98 -15 -99 -12 -125 13 -120 11 2 17 16 19 43 1 22 7 70 13
108 l12 67 34 0 c26 0 34 4 34 18 0 15 -12 17 -84 19 -46 1 -87 -1 -90 -4z"/>
<path d="M1935 408 c-14 -121 -12 -183 5 -183 9 0 16 11 18 30 1 17 9 71 17
121 8 50 15 94 15 98 0 3 -11 6 -24 6 -21 0 -24 -5 -31 -72z"/>
<path d="M2099 457 c-90 -60 -92 -209 -3 -231 34 -9 91 10 104 34 15 27 12 50
-5 50 -8 0 -15 -6 -15 -13 0 -43 -59 -68 -89 -38 -37 37 -21 131 28 176 18 16
25 17 41 7 27 -17 59 -15 67 4 15 39 -75 47 -128 11z"/>
<path d="M2450 473 c-28 -10 -60 -46 -60 -68 0 -28 23 -48 81 -73 55 -24 64
-35 49 -62 -15 -29 -85 -28 -117 2 l-23 21 0 -25 c0 -52 117 -62 168 -15 44
41 25 79 -59 115 -26 11 -50 25 -54 32 -9 14 12 40 44 51 19 8 28 5 43 -11 23
-24 41 -25 59 -4 11 14 10 18 -6 30 -18 14 -95 18 -125 7z"/>
<path d="M2665 466 c-10 -34 -27 -216 -22 -230 4 -9 13 -16 22 -16 11 0 15 11
15 43 l0 43 50 0 c56 0 83 19 100 69 11 35 3 72 -22 92 -18 15 -139 14 -143
-1z m106 -16 c13 -8 19 -21 19 -47 0 -47 -24 -73 -67 -73 l-34 0 7 53 c8 68
32 89 75 67z"/>
<path d="M2909 478 c-1 -2 -3 -14 -4 -28 -1 -14 -8 -67 -15 -118 -9 -67 -10
-96 -2 -104 14 -14 43 -2 36 15 -3 8 2 57 10 110 20 123 20 127 -4 127 -11 0
-21 -1 -21 -2z"/>
<path d="M3063 459 c-44 -28 -77 -99 -70 -151 8 -57 36 -83 93 -83 38 0 50 5
70 29 25 28 27 47 7 53 -6 2 -14 -5 -18 -17 -4 -11 -17 -28 -31 -36 -22 -15
-26 -15 -49 0 -14 9 -27 27 -31 40 -8 33 12 101 40 133 22 25 26 26 49 14 33
-17 62 -11 62 14 0 30 -79 33 -122 4z"/>
<path d="M3265 466 c-8 -30 -27 -215 -23 -227 5 -16 103 -23 130 -8 35 19 19
29 -37 23 -54 -7 -55 -6 -55 19 0 43 10 57 41 57 20 0 29 5 29 16 0 10 -6 13
-17 10 -29 -9 -40 6 -35 46 4 37 4 37 55 40 36 2 53 7 55 18 2 12 -11 15 -69
16 -42 0 -72 -4 -74 -10z"/>
</g>
</svg>
